<?xml version="1.0" encoding="utf-8"?>
<!-- Generator: Adobe Illustrator 16.0.0, SVG Export Plug-In . SVG Version: 6.00 Build 0)  -->
<!DOCTYPE svg PUBLIC "-//W3C//DTD SVG 1.1//EN" "http://www.w3.org/Graphics/SVG/1.1/DTD/svg11.dtd">
<svg version="1.1" id="Layer_1" xmlns="http://www.w3.org/2000/svg" xmlns:xlink="http://www.w3.org/1999/xlink" x="0px" y="0px"
	 width="230.236px" height="56.447px" viewBox="0 0 230.236 56.447" enable-background="new 0 0 230.236 56.447"
	 xml:space="preserve">
<g>
	<g>
		<path fill-rule="evenodd" clip-rule="evenodd" fill="#21828C" d="M191.827,20.317v11.522c0,3.393,0.872,5.632,2.615,6.713
			c1.743,1.084,3.674,1.672,5.791,1.775c2.158,0,4.151-0.542,5.969-1.623c1.821-1.084,2.726-3.372,2.726-6.865V20.317h-2.586
			c-0.736,0-1.341,0.245-1.805,0.744c-0.474,0.49-0.707,1.082-0.707,1.768v10.062c0,1.182-0.352,2.045-1.063,2.587
			c-0.709,0.541-1.508,0.811-2.391,0.811s-1.664-0.27-2.349-0.811c-0.684-0.542-1.032-1.405-1.032-2.587V20.317H191.827z"/>
		<path fill-rule="evenodd" clip-rule="evenodd" fill="#21828C" d="M121.354,14.578v25.374h5.175V17.014
			c0-0.691-0.247-1.266-0.737-1.736c-0.497-0.468-1.091-0.7-1.775-0.7H121.354z"/>
		<path fill-rule="evenodd" clip-rule="evenodd" fill="#21828C" d="M145.476,22.551c-1.627-1.766-3.91-2.649-6.862-2.649
			c-2.799,0-4.989,0.912-6.567,2.731c-1.528,1.77-2.291,4.222-2.291,7.367c0,3.297,0.788,5.828,2.366,7.598
			c1.574,1.817,3.769,2.729,6.568,2.729c2.311,0,4.229-0.566,5.75-1.699c1.525-1.081,2.558-2.657,3.097-4.718h-3.688
			c-0.584,0-1.042,0.126-1.366,0.368c-0.312,0.245-0.503,0.449-0.544,0.593c-0.151,0.152-0.284,0.292-0.412,0.408
			c-0.118,0.127-0.258,0.215-0.399,0.259c-0.594,0.347-1.307,0.524-2.144,0.524c-1.272,0-2.238-0.399-2.873-1.191
			c-0.691-0.744-1.059-1.88-1.107-3.415h12.751c0.055-0.101,0.079-0.272,0.079-0.52v-0.292v-0.513
			C147.833,26.893,147.048,24.362,145.476,22.551z M135.003,28.134c0.049-1.272,0.416-2.255,1.107-2.941
			c0.688-0.683,1.571-1.025,2.655-1.025c1.177,0,2.091,0.342,2.722,1.025c0.594,0.637,0.941,1.618,1.032,2.941H135.003z"/>
		<path fill-rule="evenodd" clip-rule="evenodd" fill="#21828C" d="M227.88,22.551c-1.626-1.766-3.912-2.649-6.862-2.649
			c-2.802,0-4.989,0.912-6.568,2.731c-1.53,1.77-2.29,4.222-2.29,7.367c0,3.297,0.785,5.828,2.366,7.598
			c1.571,1.817,3.767,2.729,6.566,2.729c2.312,0,4.23-0.566,5.752-1.699c1.522-1.081,2.557-2.657,3.098-4.718h-3.688
			c-0.585,0-1.044,0.126-1.367,0.368c-0.313,0.245-0.503,0.449-0.545,0.593c-0.151,0.152-0.286,0.292-0.412,0.408
			c-0.119,0.127-0.257,0.215-0.399,0.259c-0.593,0.347-1.306,0.524-2.143,0.524c-1.274,0-2.24-0.399-2.874-1.191
			c-0.69-0.744-1.059-1.88-1.105-3.415h12.75c0.054-0.101,0.078-0.272,0.078-0.52v-0.292v-0.513
			C230.236,26.893,229.451,24.362,227.88,22.551z M217.408,28.134c0.047-1.272,0.415-2.255,1.105-2.941
			c0.686-0.683,1.572-1.025,2.656-1.025c1.177,0,2.091,0.342,2.721,1.025c0.594,0.637,0.941,1.618,1.032,2.941H217.408z"/>
		<path fill-rule="evenodd" clip-rule="evenodd" fill="#21828C" d="M164.862,21.307c-1.375-0.939-3.439-1.405-6.197-1.405
			c-2.455,0-4.351,0.567-5.674,1.699c-1.185,0.989-1.869,2.247-2.064,3.775h4.939c0.241-0.554,0.633-0.93,1.178-1.132
			c0.537-0.202,1.154-0.304,1.841-0.304c0.643,0,1.342,0.114,2.1,0.336c0.764,0.218,1.149,0.7,1.149,1.439
			c0,0.982-1.082,1.624-3.249,1.915c-0.445,0.048-0.834,0.112-1.182,0.186c-0.346,0.076-0.643,0.108-0.89,0.108
			c-1.868,0.295-3.408,0.889-4.612,1.771c-1.208,0.89-1.812,2.363-1.812,4.431c0,2.216,0.669,3.803,1.996,4.759
			c1.328,0.961,2.876,1.441,4.648,1.441c0.89,0,1.909-0.062,3.064-0.182c1.16-0.127,2.256-0.461,3.288-1.003
			c0.978-0.488,1.831-1.289,2.547-2.389c0.709-1.107,1.071-2.643,1.071-4.609v-6.713C167.005,23.666,166.292,22.288,164.862,21.307z
			 M162.004,31.942c0,1.378-0.396,2.454-1.182,3.237c-0.788,0.788-1.876,1.186-3.254,1.186c-0.839,0-1.481-0.195-1.92-0.595
			c-0.448-0.438-0.666-1.028-0.666-1.768c0-0.54,0.169-1.08,0.515-1.621c0.397-0.39,1.037-0.714,1.924-0.957l1.7-0.374
			c1.237-0.295,2.19-0.608,2.883-0.954V31.942z"/>
		<path fill-rule="evenodd" clip-rule="evenodd" fill="#21828C" d="M185.322,21.82c-2.018-1.278-4.21-1.918-6.575-1.918
			c-3.103,0-5.355,0.943-6.758,2.839c-1.402,1.894-2.104,4.361-2.104,7.414c0,2.604,0.529,4.707,1.587,6.302
			c1.068,1.599,2.328,2.687,3.808,3.279c1.471,0.592,2.962,0.712,4.47,0.371c1.497-0.346,2.689-1.207,3.579-2.579v1.252
			c-0.103,1.572-0.479,2.749-1.147,3.533c-0.659,0.79-1.397,1.266-2.207,1.442c-0.812,0.173-1.627,0.078-2.435-0.295
			c-0.812-0.37-1.419-0.899-1.809-1.586h-5.379c1.075,4.229,3.883,6.343,8.401,6.343c2.358,0,4.551-0.628,6.568-1.879
			c2.021-1.254,3.027-3.599,3.027-7.043V28.899C188.35,25.456,187.343,23.101,185.322,21.82z M183.172,32.021
			c-0.205,1.159-0.522,2.008-0.964,2.548c-0.931,1.277-2.387,1.732-4.351,1.357c-1.969-0.363-2.948-2.243-2.948-5.637
			c0-1.574,0.295-2.975,0.884-4.201c0.588-1.229,1.718-1.844,3.395-1.844c1.225,0,2.16,0.439,2.801,1.328
			c0.642,0.885,1.041,1.893,1.214,3.019C183.379,29.726,183.366,30.871,183.172,32.021z"/>
		<path fill-rule="evenodd" clip-rule="evenodd" fill="#004A63" d="M75.04,15.277c-0.498-0.516-1.084-0.773-1.776-0.773h-2.512
			v8.417c-0.59-0.929-1.377-1.69-2.366-2.284c-0.93-0.491-2.012-0.735-3.245-0.735c-2.316,0-4.211,0.957-5.688,2.877
			c-1.431,1.871-2.14,4.347-2.14,7.45c0,3.145,0.709,5.624,2.14,7.443c0.744,0.938,1.725,1.613,2.957,2.027
			c1.226,0.422,2.486,0.628,3.764,0.628c2.364,0,4.557-0.618,6.576-1.847c2.019-1.23,3.027-3.592,3.027-7.083V17.014
			C75.776,16.373,75.532,15.791,75.04,15.277z M69.72,34.514c-0.74,1.029-1.775,1.549-3.104,1.549c-1.377,0-2.438-0.52-3.178-1.549
			c-0.733-1.039-1.105-2.537-1.105-4.504c0-1.777,0.372-3.155,1.105-4.141c0.739-1.032,1.752-1.547,3.028-1.547
			c1.333,0,2.392,0.486,3.178,1.477c0.736,1.031,1.107,2.434,1.107,4.211C70.751,31.977,70.408,33.475,69.72,34.514z"/>
		<path fill-rule="evenodd" clip-rule="evenodd" fill="#004A63" d="M95.692,22.551c-1.623-1.766-3.905-2.649-6.857-2.649
			c-2.798,0-4.992,0.912-6.57,2.731c-1.528,1.77-2.29,4.222-2.29,7.367c0,3.297,0.786,5.828,2.367,7.598
			c1.573,1.817,3.768,2.729,6.568,2.729c2.311,0,4.227-0.566,5.752-1.699c1.522-1.081,2.554-2.657,3.094-4.718h-3.688
			c-0.583,0-1.043,0.126-1.366,0.368c-0.312,0.245-0.501,0.449-0.544,0.593c-0.153,0.152-0.286,0.292-0.413,0.408
			c-0.117,0.127-0.257,0.215-0.401,0.259c-0.592,0.347-1.303,0.524-2.139,0.524c-1.277,0-2.241-0.399-2.876-1.191
			c-0.691-0.744-1.057-1.88-1.108-3.415h12.757c0.05-0.101,0.073-0.272,0.073-0.52v-0.292v-0.513
			C98.052,26.893,97.265,24.362,95.692,22.551z M85.222,28.134c0.051-1.272,0.417-2.255,1.108-2.941
			c0.687-0.683,1.574-1.025,2.656-1.025c1.178,0,2.087,0.342,2.725,1.025c0.591,0.637,0.939,1.618,1.032,2.941H85.222z"/>
		<path fill-rule="evenodd" clip-rule="evenodd" fill="#004A63" d="M99.225,20.317l6.858,19.634h5.235l6.93-19.634h-3.833
			c-1.176,0-1.962,0.592-2.356,1.772l-3.47,12.028l-3.904-13.8H99.225z"/>
	</g>
	<g>
		<path fill-rule="evenodd" clip-rule="evenodd" fill="#004A63" d="M25.101,0.101c7.783,5.08,16.108,8.131,25.009,9.035
			c-2.472,21.865-10.827,37.586-25.009,47.208C10.92,46.722,2.565,31.001,0.094,9.136C9.004,8.257,17.32,5.172,25.101,0.101z"/>
		<path fill="none" stroke="#004A63" stroke-width="0.1691" stroke-miterlimit="22.9256" d="M25.101,0.101
			c7.783,5.08,16.108,8.131,25.009,9.035c-2.472,21.865-10.827,37.586-25.009,47.208C10.92,46.722,2.565,31.001,0.094,9.136
			C9.004,8.257,17.32,5.172,25.101,0.101z"/>
		<path fill-rule="evenodd" clip-rule="evenodd" fill="#21828C" d="M25.101,56.344V0.101C17.32,5.172,9.004,8.257,0.094,9.136
			C2.565,31.001,10.92,46.722,25.101,56.344"/>
		<path fill-rule="evenodd" clip-rule="evenodd" fill="#004A63" d="M25.101,0.101v56.243C39.283,46.722,47.638,31.001,50.11,9.136
			C41.208,8.232,32.884,5.181,25.101,0.101"/>
		<path fill-rule="evenodd" clip-rule="evenodd" fill="#FFFFFF" d="M25.101,5.11c-6.288,3.857-13.092,6.491-20.385,7.593
			c2.113,15.099,7.802,29.248,20.385,38.525c12.585-9.277,18.274-23.432,20.388-38.531C38.195,11.585,31.387,8.97,25.101,5.11
			 M25.101,52.844c13.766-9.722,19.8-24.96,21.856-41.265c-7.86-1-15.148-3.767-21.856-8.016c-6.708,4.242-13.99,7.036-21.854,8.022
			C5.303,27.884,11.337,43.123,25.101,52.844z"/>
		<path fill-rule="evenodd" clip-rule="evenodd" fill="#FFFFFF" d="M16.012,19.861c-0.008,1.42-0.082,2.423-0.218,3.012
			c-0.135,0.585-0.413,1.047-0.828,1.383c-0.415,0.341-0.95,0.514-1.609,0.533v2.091c0.653,0.017,1.184,0.198,1.596,0.538
			c0.411,0.337,0.681,0.801,0.815,1.388c0.135,0.583,0.21,1.645,0.218,3.179c0.009,1.527,0.065,2.627,0.175,3.301
			c0.104,0.672,0.337,1.224,0.693,1.662c0.358,0.441,0.811,0.753,1.351,0.949c0.376,0.135,0.98,0.206,1.816,0.206h0.712v-2.013
			h-0.397c-0.807,0-1.346-0.113-1.625-0.347c-0.275-0.234-0.445-0.632-0.516-1.209c-0.015-0.316-0.025-1.304-0.025-2.959
			c0-1.826-0.214-3.143-0.637-3.946c-0.427-0.801-1.112-1.399-2.06-1.79c0.805-0.383,1.389-0.821,1.765-1.313
			c0.37-0.493,0.634-1.194,0.788-2.106c0.096-0.587,0.144-1.997,0.144-4.225c0-1.106,0.144-1.817,0.428-2.137
			c0.288-0.319,0.868-0.48,1.744-0.48h0.391v-2.016h-0.709c-0.733,0-1.255,0.046-1.58,0.128c-0.475,0.136-0.866,0.336-1.172,0.593
			c-0.305,0.263-0.562,0.613-0.767,1.041c-0.208,0.437-0.35,1.01-0.429,1.724C16.039,17.503,16.017,18.439,16.012,19.861"/>
		<path fill-rule="evenodd" clip-rule="evenodd" fill="#FFFFFF" d="M32.495,20.082c0,1.831,0.2,3.13,0.605,3.905
			c0.407,0.764,1.104,1.387,2.094,1.854c-0.756,0.32-1.334,0.753-1.749,1.319c-0.411,0.566-0.684,1.32-0.82,2.262
			c-0.07,0.57-0.104,1.914-0.104,4.043c0,1.109-0.144,1.828-0.43,2.146c-0.292,0.316-0.877,0.479-1.762,0.479h-0.396v2.013h0.715
			c0.737,0,1.264-0.049,1.587-0.141c0.478-0.132,0.871-0.333,1.177-0.593c0.31-0.26,0.566-0.604,0.776-1.032
			c0.208-0.432,0.348-1.006,0.427-1.727c0.04-0.455,0.062-1.387,0.066-2.809c0.007-1.421,0.082-2.42,0.218-3.002
			c0.134-0.581,0.414-1.045,0.828-1.382c0.413-0.34,0.951-0.521,1.608-0.538V24.79c-0.657-0.02-1.195-0.197-1.608-0.538
			c-0.415-0.341-0.694-0.802-0.828-1.385c-0.136-0.582-0.21-1.64-0.218-3.17c-0.011-1.537-0.066-2.64-0.175-3.31
			c-0.104-0.671-0.336-1.232-0.693-1.673c-0.357-0.444-0.806-0.756-1.353-0.944c-0.374-0.136-0.979-0.207-1.812-0.207h-0.715v2.016
			h0.396c0.81,0,1.356,0.117,1.634,0.341c0.279,0.223,0.447,0.623,0.507,1.189C32.487,17.433,32.495,18.427,32.495,20.082"/>
	</g>
</g>
</svg>
