<svg xmlns="http://www.w3.org/2000/svg" viewBox="0 0 219.23 244.07">
  <defs>
    <style>.cls-1{fill:#444444;}.cls-2{fill:#f4f0df;}.cls-3{fill:#efeaeb;}</style>
  </defs>
  <g id="egg">
    <path class="cls-1" d="M314.19,257.91c0,56.5-43.67,102.31-88.9,102.31s-88-45.8-88-102.31,42.79-99.91,88-99.91S314.19,201.41,314.19,257.91Z" transform="translate(-112.84 -135.59)"/>
    <path id="bottom_half" class="cls-2" d="M326.33,262.63c0,64.64-50,117-101.7,117s-100.7-52.4-100.7-117c3.95,4,7.94,7.48,11.88,11.52a36.82,36.82,0,0,0,5.57-8.42,19.66,19.66,0,0,0,5.61,4.21,41.17,41.17,0,0,0,5.38-6.28l6.12,4.87,3.88-2.92q8.72,7.18,16.94,14.93a61.15,61.15,0,0,0,9.46-9.56l8.92,8.77A111.43,111.43,0,0,0,209.37,268a38,38,0,0,1,7.65,4.06l5.54-6.75a39.88,39.88,0,0,0,6.1,5.72,138.15,138.15,0,0,0,10.62-8.95A75.66,75.66,0,0,1,253.52,273a64.21,64.21,0,0,1,6.22-8.94l5.52,6a23.76,23.76,0,0,1,4.63-8.13,9.37,9.37,0,0,0,8.14,4.51,10.29,10.29,0,0,0,8.2-4.58l9.25,8.82a85.33,85.33,0,0,0,8-8.94l5.56,7.42a2.26,2.26,0,0,0,1.34,1.05,2.22,2.22,0,0,0,1.65-.76,57.16,57.16,0,0,0,6.58-6.84l3.24,6.92C323.14,267.16,325.07,265,326.33,262.63Z" transform="translate(-112.84 -135.59)"/>
    <path id="top_head" class="cls-2" d="M310.5,209.93c-18.82-41.1-52-74.33-85.87-74.33-32.34,0-63.6,30.23-82.49,68.69l10.77-5.2,5.32,7.33,7.38-6.52a84.43,84.43,0,0,1,12.6,12.57,11.51,11.51,0,0,0,4.86-3.74l3.3,2.68,12.37-13.82A58.91,58.91,0,0,1,217,213.31l6.28-5.68,9.46,7.5,11.4-15,11.5,12a46.85,46.85,0,0,0,7.94-8.41q5.36,5.24,11.14,10A132.72,132.72,0,0,0,282.26,201q5.78,5.36,11.08,11.2a24.88,24.88,0,0,1,2-9.77C300.46,204.73,305.91,206.7,310.5,209.93Z" transform="translate(-112.84 -135.59)"/>
  </g>
  <g id="face">
    <path class="cls-3" d="M203.65,250l0,.19a3.77,3.77,0,0,0-.05.56,4.55,4.55,0,0,0,.49,2,5.82,5.82,0,0,0,2.1,2.32,11.27,11.27,0,0,0,3.89,1.38c1.51.27,3.23.46,5,.69s3.68.39,5.63.55,4,.24,6,.34,4.15.1,6.25.06,4.18-.09,6.24-.2,4.08-.26,6-.48,3.84-.43,5.63-.68a32.08,32.08,0,0,0,4.91-1,10.17,10.17,0,0,0,3.63-1.89,7,7,0,0,0,1.89-2.56,5.52,5.52,0,0,0,.45-2,3.67,3.67,0,0,0,0-.56l0-.19,0,.19a3.73,3.73,0,0,1,.11.56,5.14,5.14,0,0,1-.19,2.17,7.51,7.51,0,0,1-1.74,3,10.06,10.06,0,0,1-3.77,2.44,27.59,27.59,0,0,1-5,1.34c-1.79.35-3.69.7-5.67,1a98.91,98.91,0,0,1-24.94.29c-2-.2-3.89-.51-5.69-.82s-3.47-.63-5.05-1.05a11,11,0,0,1-4.05-1.88,6.36,6.36,0,0,1-2-2.79,4.37,4.37,0,0,1-.24-2.17,3.84,3.84,0,0,1,.13-.56Z" transform="translate(-112.84 -135.59)"/>
    <circle id="left_eye" class="cls-3" cx="82.18" cy="87.19" r="8.38"/>
    <circle id="right_eye" class="cls-3" cx="154.78" cy="86.19" r="8.38"/>
  </g>
  <g id="arms">
    <path class="cls-1" d="M136.8,255.75a59.1,59.1,0,0,1-9-9.66c-5.28-7.13-8.87-15.35-12.22-23.57a33.05,33.05,0,0,1-2.74-9.38,1.59,1.59,0,0,1,.24-1.22c.61-.69,1.71,0,2.32.71L132.58,232c2.51,2.83,5.13,5.74,8.6,7.27a4.43,4.43,0,0,1,2,1.27,3.79,3.79,0,0,1,.33,2.62q-.54,4.73-1.24,9.44a4.27,4.27,0,0,1-1.25,2.91c-.86.66-2.5.17-2.41-.91Z" transform="translate(-112.84 -135.59)"/>
    <path class="cls-1" d="M308.5,238.2c6.14-6.81,10.55-15,14.9-23l7.49-13.89c2.16,4.23,1,9.33-.39,13.87a184.59,184.59,0,0,1-15.6,36.49c-.67,1.2-2,2.57-3.17,1.78a2.52,2.52,0,0,1-.77-1.91q-.87-8.87-1-17.79Z" transform="translate(-112.84 -135.59)"/>
  </g>
</svg>