<?xml version="1.0" encoding="utf-8"?>
<!-- Generator: Adobe Illustrator 21.0.2, SVG Export Plug-In . SVG Version: 6.00 Build 0)  -->
<!DOCTYPE svg PUBLIC "-//W3C//DTD SVG 1.1//EN" "http://www.w3.org/Graphics/SVG/1.1/DTD/svg11.dtd" [
  <!ENTITY st0 "fill:#898989;">
]>
<svg version="1.1" id="hacc-logo" xmlns="http://www.w3.org/2000/svg" xmlns:xlink="http://www.w3.org/1999/xlink" x="0px" y="0px"
   viewBox="0 0 50 50" style="enable-background:new 0 0 50 50;" xml:space="preserve">
<g>
  <path d="M21.4,16.2c-0.1-0.3-0.1-0.6-0.1-0.6c-0.1-0.7-0.4-1.1-0.4-1.1c-0.4-0.8-1.2-0.7-1.2-0.7
    c-1.3,0.3-0.6,1.8-0.6,1.8c0.4,0.6,1.8,1.7,1.8,1.7c0.9,0.9,1.9,2.9,1.9,2.9c0.3,0.7,0.5,1.2,0.5,1.2c0.2,0.7,0,1.1,0,1.1
    c-0.3,0.5-0.7,0-0.7,0s-2.1-4.5-5.9-6.3c0,0-5.2-1.7-4.9-7.1c0,0,0.1-2.7,3.1-2.4c0,0,0.8,0,1.1-0.9c0,0,1.1-3.1,4.4-2.7
    c0,0,3.2,0.1,4,2.8c0,0,0.2,0.7,1.6,0.5c0,0,3.2-0.4,3.9,2.9c0,0,0.7,4.7-1.8,8.6c0,0-1.8,2.9-3.1,3.8c0,0-0.8,0.2-0.5-0.7
    c0,0,0.3-0.5,0.7-1c0,0,1.4-1.7,2.1-3c0,0,0.8-1.8,0.2-3c0,0-0.8-1.3-1.8,0.2c0,0-0.3,0.7-0.2,1.4c0,0,0,1.5-0.8,1.6
    c0,0-0.6,0-0.6-0.9c0,0,0-0.9,0.2-1.7c0,0,0.4-2.5-0.2-3.3c0,0-0.9-1.5-2-1.7c0,0-1.4-0.2-1.3,1.2c0,0,0.1,1.1,1.2,2.2
    c0,0,0.5,0.4,0.5,1c0,0,0.4,2.4-0.1,3.2c0,0-0.2,0.3-0.6-0.4C21.8,16.9,21.5,16.5,21.4,16.2z"/>
  <path d="M38.4,22.9c0.6,0.3,0.9,1.1,0.9,1.1c0.2,0.8-0.5,1.5-0.5,1.5c-0.7,0.6-1.9,0.3-1.9,0.3
    c-0.4-0.1-0.7-0.3-0.7-0.3c-0.4-0.3-0.9-0.4-0.9-0.4c-2.8-0.6-5.3-0.3-5.3-0.3c-0.9,0-1.6,0.7-1.6,0.7c-0.6,0.6-0.2,1.1-0.2,1.1
    c0.2,0.2,0.6,0.3,0.6,0.3c0.5,0.1,1.4,0,1.4,0C31.9,26.9,33,27,33,27c1.4,0.2,2.4,0.7,2.4,0.7c0.9,0.4,1.8,1.1,1.8,1.1
    c1.1,0.9,2.3,1.5,2.3,1.5c1.2,0.8,3,0.4,3,0.4c1.2-0.3,2.5-1.4,2.5-1.4c1.4-1,1.9-3.7,1.9-3.7c0.2-1.2-0.3-2.2-0.3-2.2
    C46.6,23,47,22.8,47,22.8c1.1-0.9,1.1-2.7,1.1-2.7c0-1.5-0.5-2.4-0.5-2.4c-0.7-1.3-2.3-1.8-2.3-1.8c-1.1-0.4-1.8,0.5-1.8,0.5
    c-0.3,0.4-0.5,0.4-0.5,0.4c-0.4,0-0.6-0.4-0.6-0.4c-0.3-0.6-1.4-1.9-1.4-1.9c-1-1.2-2.7-1.3-2.7-1.3C36.4,13,34.9,14,34.9,14
    c-1.5,1.1-2.7,4.6-2.7,4.6s-0.3,0.8-0.6,1.4c0,0-1.2,2.4-1.6,2.7c0,0-0.6,0.5-0.7,1c0,0-0.1,0.4,0.1,0.5c0,0,0.4,0.2,0.8,0
    c0,0,0.8-0.4,1.1-1c0,0,0.3-0.5,0.4-0.7c0,0,0.9-1.8,1.8-2.3c0,0,0.8-0.5,1.7-0.4c0,0,0.6,0,0.8,0.4c0,0,0.5,0.6-0.3,1.1
    c0,0-0.5,0.2-1,0.4c0,0-0.6,0.2-1.1,0.6c0,0-0.4,0.3-0.2,0.7c0,0,0.1,0.4,0.8,0.2c0,0,1.2-0.4,1.8-0.4c0,0,0.8-0.1,1.3,0
    C37.4,22.7,38.1,22.8,38.4,22.9z"/>
  <path d="M34.1,34.2c-0.2-0.5-0.8-0.9-0.8-0.9c-0.3-0.1-0.5-0.6-0.5-0.6c-0.1-0.3,0.1-0.6,0.1-0.6
    c0.5-0.2,1.3-0.1,1.3-0.1c0.5,0.1,0.6,0.7,0.6,0.7c0.1,0.4,0.3,0.7,0.3,0.7c0.2,0.3,0.5,0.2,0.5,0.2c0.1-0.1,0.1-0.5,0.1-0.5
    c-0.1-0.8-1.2-1.9-1.2-1.9c-0.8-0.8-3.2-1.9-3.2-1.9c-1.2-0.6-3-0.4-3-0.4c-0.5,0.1-0.8,0.3-0.8,0.3c-0.4,0.3-0.6,0.1-0.6,0.1
    c-0.3-0.2,0-0.6,0-0.6s1.2-1.2,3.1-1.1c0,0,3,0,4.9,1.1c0,0,2.4,1.4,3.8,2.7c0,0,2.4,2.2,2.9,3.7c0,0,0.6,1.8,0,3.4
    c0,0-0.7,1.4-1.3,1.8c0,0-0.5,0.1-0.3,0.7c0,0,0.5,1.2,0.3,1.9c0,0-0.5,1.9-1.8,2.5c0,0-0.8,0.5-2,0.5c0,0-1.4,0-2.1-0.8
    c0,0-0.2-0.2-0.2-0.6c0,0,0-0.5-0.3-0.4c0,0-0.3,0-0.2,0.5c0,0,0.2,0.8-0.8,0.8c0,0-1.4,0.2-2.5-0.5c0,0-1.1-0.6-1.9-2.1
    c0,0-0.6-1.4-0.3-3.1c0,0,0.3-1.2,0.4-1.7c0,0,0.2-2.7,0-3.7c0,0-0.3-1.1-0.7-1.5c0,0-1.1-1.4-1.7-1.7c0,0-0.7-0.4-0.6-0.9
    c0,0,0.1-0.6,1-0.2c0,0,1.6,0.8,2.2,1.7c0,0,1.5,2.1,1.3,3.9c0,0,0,1.7,0.2,2.1c0,0,0.4,0.6,0.9,0.7c0,0,0.7,0,0.9-0.8
    c0,0,0.2-1.1-0.1-1.8c0,0-0.4-0.8-0.7-1.1c0,0-0.3-0.4-0.4-0.9c0,0-0.1-0.5,0.1-0.7c0,0,0.4-0.2,0.7,0.4c0,0,0.4,0.8,0.5,0.9
    c0,0,0.2,0.3,0.6,0.5c0,0,0.6,0.1,0.7,0.9c0,0,0.1,0.5,0,1.4c0,0-0.2,1,0.1,1.3c0,0,0.5,0.8,1.5,0.9c0,0,0.7,0.1,1.2-0.3
    c0,0,0.6-0.4,0.4-1.3c0,0-0.2-0.8-0.6-1.3c0,0-0.8-0.7-1.1-1.3C34.7,35.1,34.3,34.6,34.1,34.2z"/>
  <path d="M24.3,34.7c0.1,0.5-0.1,3-0.1,3c-0.1,1-0.8,1-0.8,1c-0.4,0.1-0.6-0.3-0.6-0.3c-0.2-0.6,0-3.3,0-3.3
    c0.1-1.2-0.9-1.1-0.9-1.1c-0.8,0.2-1,1.8-1,1.8c-0.2,0.8-0.7,2.8-0.7,2.8c-0.1,0.7-1.1,2.1-1.1,2.1c-1.1,1.3-1.8,0.2-1.8,0.2
    c-0.4-0.7,0.9-2.1,0.9-2.1c1-0.9,1.3-2.6,1.3-2.6c0.1-1-0.8-1.1-0.8-1.1c-0.9,0-1.4,1.3-1.4,1.3C17,37,16,38,16,38
    c-0.9,0.7-1.5,0.3-1.5,0.3c-0.5-0.6-0.2-1.5-0.2-1.5c0.3-0.8,1.6-1.6,1.6-1.6c0.8-0.4,1.6-1.5,1.6-1.5c0.3-0.7-0.4-0.9-0.4-0.9
    c-0.5-0.1-0.8,0.4-0.8,0.4c-0.2,0.4-1.5,0.9-1.5,0.9c-0.8,0.3-1.4,0-1.4,0c-0.4-0.2-0.4-0.9-0.4-0.9c0-1,1-2.3,1-2.3
    c0.3-0.4,1.3-1.2,1.3-1.2c1-0.7,2.1-1,2.1-1c0.3-0.1,1.3-0.1,1.3-0.1c0.7,0.1,0.6-0.4,0.6-0.4c0-0.2-0.3-0.3-0.3-0.3
    c-0.4-0.1-0.8,0-0.8,0c-1,0-3.9,0.8-3.9,0.8c-1.5,0.5-4.4,2-4.4,2c-1.9,0.9-2.6,2.7-2.6,2.7C6.9,35.3,6.8,38,6.8,38
    c-0.1,1.7,0.7,2.3,0.7,2.3c0.3,0.2,0.6,0.3,0.6,0.3c0.3,0,0.4,0.1,0.4,0.1c0.4,0.1,0.4,0.7,0.4,0.7c-0.1,1.2,0.2,2.4,0.2,2.4
    c0.8,2.3,2.3,3.2,2.3,3.2c0.9,0.9,2.1,1.5,2.1,1.5c1,0.4,1.4,0,1.4,0c0.3-0.2,0.2-0.5,0.2-0.5c0-0.6,0.8-0.8,0.8-0.8
    c0.5-0.2,1,0.1,1,0.1c0.8,0.4,1.6,0.5,1.6,0.5c1.2,0.1,2.2-0.1,2.2-0.1c1.1-0.2,1.7-0.7,1.7-0.7c0.9-0.5,1.2-1.6,1.2-1.6
    c0.3-0.8,0-1.1,0-1.1c-0.1-0.3,0-0.6,0-0.6c0.1-0.5,0.5-0.7,0.5-0.7c1.2-0.6,1.8-2.1,1.8-2.1c0.7-1.7,0.7-4.3,0.7-4.3
    c0-1.8-0.6-3.6-0.6-3.6c-0.5-1.3-2-2.3-2-2.3s-0.6-0.4-1-0.1c0,0-0.3,0.5,0.2,0.8c0,0,0.7,0.4,0.7,0.9c0,0,0,0.9,0.2,1.6L24.3,34.7
    z"/>
  <path d="M11.8,29.4c0.9-0.4,2.2-1.5,2.2-1.5c1-1.1,3.6-1.3,3.6-1.3c0.7-0.1,1.5,0.1,1.5,0.1c0.8,0,0.8-0.7,0.8-0.7
    c0-0.4-0.4-0.6-0.4-0.6c-0.9-0.7-2.7-0.4-2.7-0.4c-1.3,0.1-2.8,1-2.8,1c-1.5,0.6-2.7,0.3-2.7,0.3c-1-0.2-0.7-1-0.7-1
    c0.2-0.6,1.2-1.1,1.2-1.1c0.9-0.4,1.8-0.3,1.8-0.3c0.8,0.1,1,0,1,0c0.4-0.3,0.1-0.6,0.1-0.6c-0.3-0.3-1.1-0.4-1.1-0.4
    c-0.9-0.1-2.1,0.3-2.1,0.3C10.3,23.3,9.6,23,9.6,23c-0.8-0.3-0.9-1.2-0.9-1.2c-0.2-0.9,0.4-1.6,0.4-1.6c0.7-0.8,2-0.8,2-0.8
    c0.6,0,1.5,0.2,1.5,0.2c0.8,0.2,1,0.6,1,0.6c0.3,0.5,0.5,0.6,0.5,0.6c0.4,0.2,0.6-0.1,0.6-0.1c0.1-0.4-0.1-0.6-0.1-0.6
    c-0.3-0.5,0.1-0.8,0.1-0.8c0.7-0.2,1.3,0.1,1.3,0.1c1.4,0.7,2.9,2.1,2.9,2.1c0.9,0.8,1.5,1.8,1.5,1.8c0.5,0.6,0.8,0.3,0.8,0.3
    c0.2-0.3,0-0.9,0-0.9c-0.5-1.4-2.9-3.9-2.9-3.9c-1.3-1.3-4.2-3.2-4.2-3.2c-1.6-1.1-3.2-1-3.2-1c-1.9,0.3-2.6,1.7-2.6,1.7
    s-0.6,1-0.9,1.8c0,0-0.2,0.5-0.6,0.6c0,0-0.5,0.2-0.7,0c0,0-1.6-0.7-2.6-0.1c0,0-1.6,0.9-1.9,2.7c0,0-0.6,3,0.8,4.2
    c0,0,0.7,0.8,1.3,1.1c0,0,0.3,0.2,0.1,0.6c0,0-0.3,0.2-0.6,0.7c0,0-0.8,2.3,2,2.7c0,0,2.5,0.6,4.1-0.4
    C9.3,30.5,11.5,29.5,11.8,29.4z"/>
  <path d="M36.6,4.3C37,5,36.5,5.8,36.5,5.8c-0.3,0.4-0.7,0-0.7,0c-0.2-0.2-0.6-0.2-0.6-0.2c-0.5,0-0.4,0.7-0.4,0.7
    c0.1,0.5,1,0.1,1,0.1C36.5,6.3,36.5,7,36.5,7c0.1,0.5-0.3,0.8-0.3,0.8c-0.4,0.2-0.7-0.3-0.7-0.3c-0.4-0.4-0.8,0-0.8,0
    c-0.3,0.4-0.1,0.7-0.1,0.7c0.2,0.3,0.6,0.3,0.6,0.3C36,8.4,36,9.1,36,9.1c0,0.7-0.6,0.8-0.6,0.8c-0.4,0-0.7-0.6-0.7-0.6
    c-0.3-0.2-0.6-0.1-0.6-0.1c-0.3,0.3-0.3,0.6-0.3,0.6c-0.1,0.9-1.3,5.1-1.3,5.1c-0.4,1.4-2.5,5.9-2.5,5.9c-0.6,1-2.6,5-2.6,5
    c-0.2,0.4-0.6,1.4-0.6,1.4c-0.4,1.1-1.6,1.5-1.6,1.5C24,29.1,23,28.1,23,28.1s-0.9-1.2-0.5-2.1c0,0,0.2-0.7,0.7-1
    c0,0,2.2-1.5,2.7-2.2c0,0,3.7-4.6,4.5-6.9c0,0,1.8-4.6,2-6.2c0,0,0.1-0.4-0.2-0.6c0,0-0.2-0.1-0.4,0.1c0,0-0.2,0.4-0.6,0.5
    c0,0-1,0-0.8-0.9c0,0,0.2-0.8,0.8-0.9c0,0,0.3,0,0.6,0.1c0,0,0.3,0.1,0.3-0.2c0,0,0-0.3-0.2-0.4c0,0-0.2-0.1-0.7,0.1
    c0,0-1,0.2-1.2-0.4c0,0-0.2-0.8,0.5-1.1c0,0,0.8-0.2,1,0.4c0,0,0.2,0.3,0.4,0.2c0,0,0.3-0.1,0.2-0.7c0,0-0.1-0.4-0.4-0.5
    c0,0-0.1,0.2-0.6,0.1c0,0-0.8-0.3-0.7-1c0,0,0.2-1,1.1-0.8c0,0,0.6,0.1,0.6,0.8c0,0,0.3,0.5,0.8,0.4c0,0,0.5-0.3,0.4-0.7
    c0,0,0-0.4-0.3-0.7c0,0-0.7-0.4-0.7-1c0,0,0.1-1.1,1.4-1c0,0,1.2,0.1,1.3,0.9c0,0,0.1,0.7-0.7,1.3c0,0-0.4,0.4-0.1,0.7
    c0,0,0.3,0.4,0.7,0.1c0,0,0.2-0.1,0.3-0.5c0,0,0.3-0.4,0.8-0.1C36.3,3.9,36.4,4,36.6,4.3z"/>
</g>
</svg>
